<svg xmlns="http://www.w3.org/2000/svg" width="205.846" height="91.123" viewBox="0 0 205.846 91.123">
    <defs>
        <style type="text/css">
            @import url('https://fonts.googleapis.com/css?family=Roboto:300,400,500,700,900|Noto+Serif:100,400,700&subset=latin-ext')
            <!-- .cls-1{fill:#fff}.cls-2{fill:#5f916a;font-size:22px;font-family:Roboto,Arial;letter-spacing:.03em}.cls-3,.cls-4{fill:#eab266;fill-rule:evenodd}.cls-4{fill:#ea7a66;stroke:#e76b53;stroke-width:.5px}  -->
        </style>
    </defs>
    <g id="Group_865" data-name="Group 865" transform="translate(-511 -78)">
        <path id="Path_855" d="M537.519 336.883v80.7l-187.566 2.174-18.28 8.253v-91.127z" class="cls-1" data-name="Path 855" transform="translate(179.327 -258.883)"/>
        <g id="Group_864" data-name="Group 864" transform="translate(526 86)">
            <text style="font-family:Roboto" id="SUNCHALES_PARTICIPA" class="cls-2" data-name="SUNCHALES PARTICIPA" transform="translate(69 28)">
                <tspan x="0" y="0">SUNCHALES </tspan><tspan x="0" y="26">PARTICIPA</tspan>
            </text>
            <g id="Group_861" data-name="Group 861" transform="translate(6)" >
                <path id="Path_838" d="M682.505 963.165c0 2.706-.464 5.232 3.247 2.732 1.83-1.211 2.01-3.221 2.01-5.232-.077-6.262-2.938-6.751-3.814-10.1a1.759 1.759 0 0 1 2.809-1.933c2.371 1.727 3.865 5.386 7.37 5.258 3.763-.18 5.8-3.711 7.009-6.854.542-1.238 1.057-3.583 2.551-3.814.593 0 .954.335 1.108 1 1.134 5.36-4.175 10.618-7.112 14.638-1.238 1.676-3.764 4.82-2.475 6.983.7 1.186 2.165 1.109 3.351 1.032 4.794-.258 2.783-1.984 3.607-5.05 1.856-6.855 7.01-12.5 8.71-20.875.851-4.124 1.444-13.555-1.03-17.241-1.16-1.726-3.325-1.649-4.021.31-.979 2.758-.386 6.416-1.211 9.613q-.116-10.941-1.624-14.484c-1.622-3.814-6.056-4.407-6.7-.207-.619 3.917.618 9.226.051 13.89q-1.546-12.022-4.149-16.7c-2.834-5.051-8.375-4.819-7.937.98.437 5.824 3.736 8.994 3.067 16.88a27 27 0 0 0-5.206-11.365c-2.834-3.4-7.679-2.4-6.081 2.629 2.242 7.086 5.051 10.257 4.923 18.761q-3.944-5.063-8.737-5.8c-3.762-.592-6.262 1.907-5.1 4.846 1.082 2.654 5.927 5.927 8.143 7.911 3.866 3.5 7.216 7.577 7.242 12.189zm11.52-23.065a4.42 4.42 0 1 1-4.432 4.433 4.427 4.427 0 0 1 4.432-4.433z" class="cls-3" data-name="Path 838" transform="translate(-662.378 -901.341)"/>
                <path id="Path_839" d="M679.169 968.7a3.273 3.273 0 1 0-3.273-3.272 3.277 3.277 0 0 0 3.273 3.272z" class="cls-4" data-name="Path 839" transform="translate(-668.294 -933.727)"/>
                <path id="Path_840" d="M656.165 973.98a2.165 2.165 0 1 0-2.165-2.165 2.178 2.178 0 0 0 2.165 2.165z" class="cls-4" data-name="Path 840" transform="translate(-654 -938.622)"/>
                <path id="Path_841" d="M677.443 935.21a1.559 1.559 0 1 0-1.547-1.547 1.556 1.556 0 0 0 1.547 1.547z" class="cls-4" data-name="Path 841" transform="translate(-668.294 -914.104)"/>
                <path id="Path_842" d="M667.6 953.495a1.579 1.579 0 0 0 1.572-1.572 1.562 1.562 0 0 0-1.572-1.572 1.578 1.578 0 0 0-1.572 1.572 1.6 1.6 0 0 0 1.572 1.572z" class="cls-4" data-name="Path 842" transform="translate(-661.849 -926.023)"/>
                <path id="Path_843" d="M700.02 918.285a1.855 1.855 0 1 0-1.855-1.855 1.864 1.864 0 0 0 1.855 1.855z" class="cls-4" data-name="Path 843" transform="translate(-682.831 -902.669)"/>
                <path id="Path_844" d="M742.034 905.373a2.526 2.526 0 1 0-2.525-2.525 2.535 2.535 0 0 0 2.525 2.525z" class="cls-4" data-name="Path 844" transform="translate(-709.821 -893.364)"/>
                <path id="Path_845" d="M718.726 898.986a1.855 1.855 0 1 0-1.856-1.855 1.847 1.847 0 0 0 1.856 1.855z" class="cls-4" data-name="Path 845" transform="translate(-695.042 -890.071)"/>
                <path id="Path_846" d="M783.983 929.569a1.559 1.559 0 1 0-1.572-1.547 1.551 1.551 0 0 0 1.572 1.547z" class="cls-4" data-name="Path 846" transform="translate(-737.828 -910.421)"/>
                <path id="Path_847" d="M733.585 883.4a1.559 1.559 0 1 0-1.573-1.571 1.556 1.556 0 0 0 1.573 1.571z" class="cls-4" data-name="Path 847" transform="translate(-704.927 -880.281)"/>
                <path id="Path_848" d="M766.911 909.973a1.559 1.559 0 1 0-1.572-1.572 1.557 1.557 0 0 0 1.572 1.572z" class="cls-4" data-name="Path 848" transform="translate(-726.683 -897.629)"/>
                <path id="Path_849" d="M792.445 908.661a2.165 2.165 0 1 0-2.165-2.165 2.162 2.162 0 0 0 2.165 2.165z" class="cls-4" data-name="Path 849" transform="translate(-742.965 -895.982)"/>
                <path id="Path_850" d="M679.8 913.819a2.332 2.332 0 0 0 0-4.663 2.332 2.332 0 1 0 0 4.663z" class="cls-4" data-name="Path 850" transform="translate(-669.312 -899.131)"/>
                <path id="Path_851" d="M800.847 936.351a2.539 2.539 0 1 0-2.547-2.551 2.552 2.552 0 0 0 2.552 2.552z" class="cls-4" data-name="Path 851" transform="translate(-748.198 -913.569)"/>
                <path id="Path_852" d="M698.41 897.4a1.211 1.211 0 1 0-1.212-1.211 1.21 1.21 0 0 0 1.212 1.211z" class="cls-4" data-name="Path 852" transform="translate(-682.2 -889.875)"/>
                <path id="Path_853" d="M803.294 956.756a1.2 1.2 0 1 0-1.211-1.212 1.21 1.21 0 0 0 1.211 1.212z" class="cls-4" data-name="Path 853" transform="translate(-750.67 -928.64)"/>
            </g>
        </g>
    </g>
</svg>
